#N canvas 748 407 471 525 10;
#X obj 24 19 smspd;
#X obj 123 83 smsbuf \$0-blarg;
#X obj 156 309 smssynth~ \$0-blarg;
#X msg 124 32 open ../test/sms/flugel.sms;
#X msg 138 58 info;
#X floatatom 109 275 5 0 0 0 - - -;
#X obj 150 359 dak~;
#X obj 295 339 et;
#X obj 295 360 Scope~ 130 130 256 3 128 -1 1 0 0 0 0 102 255 51 135
135 135 0;
#X msg 269 284 stocgain \$1;
#X floatatom 271 263 5 0 0 0 - - -;
#X msg 270 241 transpose \$1;
#X floatatom 271 214 5 0 0 0 - - -;
#X msg 8 92 buffer \$1-blarg;
#X obj 8 72 \$0;
#X obj 8 55 bng 15 250 50 0 empty empty empty 17 7 0 10 -262144 -1
-1;
#X obj 8 230 smsanal \$0-blarg;
#X msg 188 252 buffer \$1-blarg;
#X obj 188 232 \$0;
#X obj 188 215 bng 15 250 50 0 empty empty empty 17 7 0 10 -262144
-1 -1;
#X floatatom 301 34 5 0 0 0 - - -;
#X msg 300 55 printframe \$1;
#N canvas 250 596 450 300 wavetable 0;
#N canvas 0 0 450 300 (subpatch) 0;
#X array audiobuf 44361 float 2;
#X coords 0 1 44361 -1 200 140 1;
#X restore 237 144 graph;
#X obj 36 123 soundfiler;
#X floatatom 36 146 5 0 0 0 - - -;
#X msg 36 85 read -resize ../test/audio/flugel.wav audiobuf;
#X obj 19 210 sndfileinfo;
#X floatatom 83 238 5 0 0 0 - - -;
#X msg 19 185 symbol ../test/audio/flugel.wav;
#X obj 36 49 loadbang;
#X connect 1 0 2 0;
#X connect 3 0 1 0;
#X connect 4 3 5 0;
#X connect 6 0 4 0;
#X connect 7 0 3 0;
#X restore 14 331 pd wavetable;
#X msg 30 149 array audiobuf 28800;
#X msg 30 168 verbose 0;
#X msg 29 122 soundfile ../test/audio/flugel.wav;
#N canvas 871 58 450 900 analysis_params 0;
#X msg 39 49 debug \$1;
#X obj 39 1065 outlet;
#X obj 39 33 hradio 13 1 0 13 empty empty empty 0 -8 0 10 -262144 -1
-1 0;
#X obj 52 113 hradio 13 1 0 2 empty empty empty 0 -8 0 10 -262144 -1
-1 0;
#X obj 46 73 hradio 13 1 0 4 empty empty empty 0 -8 0 10 -262144 -1
-1 0;
#X msg 46 89 format \$1;
#X msg 52 129 soundtype \$1;
#X obj 57 152 hradio 13 1 0 2 empty empty empty 0 -8 0 10 -262144 -1
-1 0;
#X msg 57 168 direction \$1;
#X msg 64 209 windowsize \$1;
#X floatatom 64 190 5 3 7 0 - - -;
#X msg 70 253 windowtype \$1;
#X floatatom 77 274 5 50 600 0 - - -;
#X msg 77 293 framerate \$1;
#X obj 70 233 hradio 13 1 0 5 empty empty empty 0 -8 0 10 -262144 -1
-1 0;
#X msg 83 336 highestfreq \$1;
#X msg 92 380 minpeakmag \$1;
#X msg 103 464 minrefharmmag \$1;
#X msg 109 505 refharmdifffrommax \$1;
#X msg 114 545 defaultfund \$1;
#X msg 98 422 refharmonic \$1;
#X msg 122 585 lowestfund \$1;
#X msg 126 625 highestfund \$1;
#X msg 132 665 nguides \$1;
#X msg 137 705 ntracks \$1;
#X msg 142 744 freqdeviation \$1;
#X msg 146 782 peakcontribution \$1;
#X msg 150 820 fundcontribution \$1;
#X msg 154 857 cleantracks \$1;
#X msg 160 895 mintracklength \$1;
#X msg 164 935 maxsleepingtime \$1;
#X msg 164 975 stochastictype \$1;
#X msg 165 1014 ncoefficients \$1;
#X floatatom 83 314 5 20 22500 0 - - -;
#X floatatom 92 359 5 0 20 0 - - -;
#X floatatom 98 401 5 0 100 0 - - -;
#X floatatom 103 444 5 5 60 0 - - -;
#X floatatom 109 485 5 5 60 0 - - -;
#X floatatom 114 526 5 20 5000 0 - - -;
#X floatatom 122 566 5 20 5000 0 - - -;
#X floatatom 126 606 5 20 5000 0 - - -;
#X floatatom 132 645 5 1 500 0 - - -;
#X floatatom 137 686 5 1 500 0 - - -;
#X floatatom 142 725 5 0.1 0.5 0 - - -;
#X floatatom 146 764 5 0 1 0 - - -;
#X floatatom 150 802 5 0 1 0 - - -;
#X obj 154 840 hradio 13 1 0 2 empty empty empty 0 -8 0 10 -262144
-1 -1 0;
#X floatatom 160 877 5 0 10 0 - - -;
#X floatatom 164 916 5 0 0.5 0 - - -;
#X obj 164 959 hradio 13 1 0 3 empty empty empty 0 -8 0 10 -262144
-1 -1 0;
#X floatatom 165 996 5 4 1028 0 - - -;
#X connect 0 0 1 0;
#X connect 2 0 0 0;
#X connect 3 0 6 0;
#X connect 4 0 5 0;
#X connect 5 0 1 0;
#X connect 6 0 1 0;
#X connect 7 0 8 0;
#X connect 8 0 1 0;
#X connect 9 0 1 0;
#X connect 10 0 9 0;
#X connect 11 0 1 0;
#X connect 12 0 13 0;
#X connect 13 0 1 0;
#X connect 14 0 11 0;
#X connect 15 0 1 0;
#X connect 16 0 1 0;
#X connect 17 0 1 0;
#X connect 18 0 1 0;
#X connect 19 0 1 0;
#X connect 20 0 1 0;
#X connect 21 0 1 0;
#X connect 22 0 1 0;
#X connect 23 0 1 0;
#X connect 24 0 1 0;
#X connect 25 0 1 0;
#X connect 26 0 1 0;
#X connect 27 0 1 0;
#X connect 28 0 1 0;
#X connect 29 0 1 0;
#X connect 30 0 1 0;
#X connect 31 0 1 0;
#X connect 32 0 1 0;
#X connect 33 0 15 0;
#X connect 34 0 16 0;
#X connect 35 0 20 0;
#X connect 36 0 17 0;
#X connect 37 0 18 0;
#X connect 38 0 19 0;
#X connect 39 0 21 0;
#X connect 40 0 22 0;
#X connect 41 0 23 0;
#X connect 42 0 24 0;
#X connect 43 0 25 0;
#X connect 44 0 26 0;
#X connect 45 0 27 0;
#X connect 46 0 28 0;
#X connect 47 0 29 0;
#X connect 48 0 30 0;
#X connect 49 0 31 0;
#X connect 50 0 32 0;
#X restore 39 196 pd analysis_params;
#X msg 287 79 save test.sms;
#N canvas 0 0 450 300 test 0;
#X obj 178 187 env~;
#X obj 131 146 *~;
#X obj 116 116 osc~ 5;
#X obj 176 116 osc~ 2;
#X obj 183 253 outlet;
#X obj 277 178 outlet;
#X obj 282 101 r pd;
#X obj 282 132 route dsp;
#X obj 325 234 samplerate~;
#X obj 327 211 bng 15 250 50 0 empty empty empty 17 7 0 10 -262144
-1 -1;
#X obj 325 261 print samplerate;
#X connect 0 0 4 0;
#X connect 1 0 0 0;
#X connect 2 0 1 0;
#X connect 3 0 1 1;
#X connect 6 0 7 0;
#X connect 7 0 5 0;
#X connect 8 0 10 0;
#X connect 9 0 8 0;
#X restore 408 52 pd test;
#X floatatom 408 76 5 0 0 0 - - -;
#X obj 451 77 tgl 15 0 empty empty empty 17 7 0 10 -262144 -1 -1 1
1;
#X floatatom 8 257 5 0 0 0 - - -;
#X obj 50 469 hsl 200 15 0 615 0 0 empty empty empty -2 -8 0 10 -262144
-1 -1 0 1;
#X msg 167 144 soundfile ../test/audio/piano.aiff;
#X msg 325 201 synthtype \$1;
#X obj 324 181 hradio 15 1 0 3 empty empty empty 0 -8 0 10 -262144
-1 -1 1;
#X connect 2 0 6 0;
#X connect 2 0 6 1;
#X connect 2 0 8 0;
#X connect 2 0 7 0;
#X connect 3 0 1 0;
#X connect 4 0 1 0;
#X connect 5 0 2 0;
#X connect 9 0 2 0;
#X connect 10 0 9 0;
#X connect 11 0 2 0;
#X connect 12 0 11 0;
#X connect 13 0 16 0;
#X connect 14 0 13 0;
#X connect 15 0 14 0;
#X connect 16 0 31 0;
#X connect 17 0 2 0;
#X connect 18 0 17 0;
#X connect 19 0 18 0;
#X connect 20 0 21 0;
#X connect 21 0 1 0;
#X connect 23 0 16 0;
#X connect 24 0 16 0;
#X connect 25 0 16 0;
#X connect 26 0 16 0;
#X connect 27 0 1 0;
#X connect 28 0 29 0;
#X connect 28 1 30 0;
#X connect 32 0 2 0;
#X connect 33 0 16 0;
#X connect 34 0 2 0;
#X connect 35 0 34 0;
