#N canvas 415 559 450 357 10;
#X obj 107 213 smsSynthFile~;
#X msg 256 81 open blarg.txt;
#X obj 157 36 bng 15 250 50 0 empty empty empty 17 7 0 10 -262144 -1
-1;
#X obj 157 56 openpanel;
#X msg 157 79 open \$1;
#X msg 257 38 open ../test/sms/flugel.sms;
#X msg 257 60 open flugel.sms;
#X msg 256 102 info;
#X obj 109 245 autosnap~;
#X obj 107 308 et;
#X obj 64 132 sig~;
#X floatatom 61 98 5 0 0 0 - - -;
#X floatatom 12 193 5 0 0 0 - - -;
#X msg 220 153 source 0;
#X msg 220 175 source 1;
#X obj 239 270 dak~;
#X connect 0 0 8 0;
#X connect 0 0 9 0;
#X connect 0 0 15 0;
#X connect 0 0 15 1;
#X connect 1 0 0 0;
#X connect 2 0 3 0;
#X connect 3 0 4 0;
#X connect 4 0 0 0;
#X connect 5 0 0 0;
#X connect 6 0 0 0;
#X connect 7 0 0 0;
#X connect 10 0 0 0;
#X connect 11 0 10 0;
#X connect 12 0 0 0;
#X connect 13 0 0 0;
#X connect 14 0 0 0;
