#N canvas 553 121 589 606 12;
#X obj 306 461 t b;
#X obj 306 408 f;
#X obj 306 486 f;
#X msg 420 485 0;
#X obj 306 438 moses 1;
#X obj 420 457 t b f;
#X obj 386 418 moses 1;
#X obj 90 74 dbtorms;
#X obj 90 147 line~;
#X obj 125 219 *~;
#X obj 90 104 pack 0 50;
#X text 91 435 test if less than 1 -->;
#X text 57 462 if true convert to bang -->;
#X obj 340 257 bng 15 250 50 0 empty mute m -16 7 0 9 -262144 -1 -1
;
#X text 326 349 MUTE logic:;
#X text 19 488 previous nonzero master-lvl -->;
#X text 91 392 recall previous;
#X text 91 410 value of master-lvl -->;
#X obj 162 219 *~;
#X floatatom 326 236 4 0 120 0 dB - -;
#X obj 359 203 vsl 15 68 0 110 0 1 empty empty empty 0 -8 0 8 -262144
-1 -1 4200 0;
#X obj 188 95 inlet~;
#X obj 254 92 inlet~;
#X text 174 35 sometimes this looks really bad on mac. sorry.;
#X obj 303 222 tgl 15 0 empty empty empty 0 -6 0 8 -262144 -1 -1 0
1;
#X obj 306 512 s \$1-dialsend;
#X msg 363 283 set \$1;
#X obj 123 256 dac~ 1 2;
#X text 170 10 Modified output~ to catch in stereo \, with dsp control
;
#X obj 196 317 env~ 8092;
#X obj 195 286 *~ 0.5;
#X connect 0 0 2 0;
#X connect 1 0 4 0;
#X connect 2 0 25 0;
#X connect 3 0 25 0;
#X connect 4 0 0 0;
#X connect 4 1 5 0;
#X connect 5 0 3 0;
#X connect 6 1 2 1;
#X connect 7 0 10 0;
#X connect 8 0 9 0;
#X connect 8 0 18 0;
#X connect 9 0 27 0;
#X connect 9 0 30 0;
#X connect 10 0 8 0;
#X connect 13 0 1 0;
#X connect 18 0 27 1;
#X connect 18 0 30 0;
#X connect 20 0 7 0;
#X connect 20 0 6 0;
#X connect 20 0 1 1;
#X connect 20 0 26 0;
#X connect 21 0 9 1;
#X connect 22 0 18 1;
#X connect 29 0 19 0;
#X connect 30 0 29 0;
#X coords 0 0 1 1 75 75 1 300 200;
