#N canvas 415 338 599 444 10;
#X obj 14 14 smsbuf \$0-blarg;
#X msg 8 92 buffer \$1-blarg;
#X obj 8 72 \$0;
#X obj 8 55 bng 15 250 50 0 empty empty empty 17 7 0 10 -262144 -1
-1;
#X obj 8 290 smsanal \$0-blarg;
#N canvas 250 596 450 300 wavetable 1;
#N canvas 0 0 450 300 (subpatch) 0;
#X array audiobuf 500 float 2;
#X coords 0 1 500 -1 200 140 1;
#X restore 237 144 graph;
#X obj 36 123 soundfiler;
#X floatatom 36 146 5 0 0 0 - - -;
#X obj 36 63 openpanel;
#X obj 36 42 bng 15 250 50 0 empty empty empty 17 7 0 10 -262144 -1
-1;
#X msg 36 85 read -resize \$1 audiobuf;
#X connect 1 0 2 0;
#X connect 3 0 5 0;
#X connect 4 0 3 0;
#X connect 5 0 1 0;
#X restore 8 347 pd wavetable;
#X msg 30 157 array audiobuf 28800;
#N canvas 871 58 450 900 analysis_params 0;
#X msg 39 49 debug \$1;
#X obj 39 1065 outlet;
#X obj 39 33 hradio 13 1 0 13 empty empty empty 0 -8 0 10 -262144 -1
-1 0;
#X obj 52 113 hradio 13 1 0 2 empty empty empty 0 -8 0 10 -262144 -1
-1 0;
#X obj 46 73 hradio 13 1 0 4 empty empty empty 0 -8 0 10 -262144 -1
-1 0;
#X msg 46 89 format \$1;
#X msg 52 129 soundtype \$1;
#X obj 57 152 hradio 13 1 0 2 empty empty empty 0 -8 0 10 -262144 -1
-1 0;
#X msg 57 168 direction \$1;
#X msg 64 209 windowsize \$1;
#X floatatom 64 190 5 3 7 0 - - -;
#X msg 70 253 windowtype \$1;
#X floatatom 77 274 5 50 600 0 - - -;
#X msg 77 293 framerate \$1;
#X obj 70 233 hradio 13 1 0 5 empty empty empty 0 -8 0 10 -262144 -1
-1 0;
#X msg 83 336 highestfreq \$1;
#X msg 92 380 minpeakmag \$1;
#X msg 103 464 minrefharmmag \$1;
#X msg 109 505 refharmdifffrommax \$1;
#X msg 114 545 defaultfund \$1;
#X msg 98 422 refharmonic \$1;
#X msg 122 585 lowestfund \$1;
#X msg 126 625 highestfund \$1;
#X msg 132 665 nguides \$1;
#X msg 137 705 ntracks \$1;
#X msg 142 744 freqdeviation \$1;
#X msg 146 782 peakcontribution \$1;
#X msg 150 820 fundcontribution \$1;
#X msg 154 857 cleantracks \$1;
#X msg 160 895 mintracklength \$1;
#X msg 164 935 maxsleepingtime \$1;
#X msg 164 975 stochastictype \$1;
#X msg 165 1014 ncoefficients \$1;
#X floatatom 83 314 5 20 22500 0 - - -;
#X floatatom 92 359 5 0 20 0 - - -;
#X floatatom 98 401 5 0 100 0 - - -;
#X floatatom 103 444 5 5 60 0 - - -;
#X floatatom 109 485 5 5 60 0 - - -;
#X floatatom 114 526 5 20 5000 0 - - -;
#X floatatom 122 566 5 20 5000 0 - - -;
#X floatatom 126 606 5 20 5000 0 - - -;
#X floatatom 132 645 5 1 500 0 - - -;
#X floatatom 137 686 5 1 500 0 - - -;
#X floatatom 142 725 5 0.1 0.5 0 - - -;
#X floatatom 146 764 5 0 1 0 - - -;
#X floatatom 150 802 5 0 1 0 - - -;
#X obj 154 840 hradio 13 1 0 2 empty empty empty 0 -8 0 10 -262144
-1 -1 0;
#X floatatom 160 877 5 0 10 0 - - -;
#X floatatom 164 916 5 0 0.5 0 - - -;
#X obj 164 959 hradio 13 1 0 3 empty empty empty 0 -8 0 10 -262144
-1 -1 0;
#X floatatom 165 996 5 4 1028 0 - - -;
#X connect 0 0 1 0;
#X connect 2 0 0 0;
#X connect 3 0 6 0;
#X connect 4 0 5 0;
#X connect 5 0 1 0;
#X connect 6 0 1 0;
#X connect 7 0 8 0;
#X connect 8 0 1 0;
#X connect 9 0 1 0;
#X connect 10 0 9 0;
#X connect 11 0 1 0;
#X connect 12 0 13 0;
#X connect 13 0 1 0;
#X connect 14 0 11 0;
#X connect 15 0 1 0;
#X connect 16 0 1 0;
#X connect 17 0 1 0;
#X connect 18 0 1 0;
#X connect 19 0 1 0;
#X connect 20 0 1 0;
#X connect 21 0 1 0;
#X connect 22 0 1 0;
#X connect 23 0 1 0;
#X connect 24 0 1 0;
#X connect 25 0 1 0;
#X connect 26 0 1 0;
#X connect 27 0 1 0;
#X connect 28 0 1 0;
#X connect 29 0 1 0;
#X connect 30 0 1 0;
#X connect 31 0 1 0;
#X connect 32 0 1 0;
#X connect 33 0 15 0;
#X connect 34 0 16 0;
#X connect 35 0 20 0;
#X connect 36 0 17 0;
#X connect 37 0 18 0;
#X connect 38 0 19 0;
#X connect 39 0 21 0;
#X connect 40 0 22 0;
#X connect 41 0 23 0;
#X connect 42 0 24 0;
#X connect 43 0 25 0;
#X connect 44 0 26 0;
#X connect 45 0 27 0;
#X connect 46 0 28 0;
#X connect 47 0 29 0;
#X connect 48 0 30 0;
#X connect 49 0 31 0;
#X connect 50 0 32 0;
#X restore 39 256 pd analysis_params;
#X floatatom 8 317 5 0 0 1 frames-analyzed - -;
#X text 120 15 <--- you need this \, it is where the analysis ends
up. See it's help file for detailed usage.;
#X msg 29 122 soundfile SOUNDFILE_NAME.wav;
#X text 208 122 <-- analyze a soundfile. supports anything you can
give to libsndfile;
#X text 164 156 <--- analyze a pd array. The analysis needs to know
the samplerate \, so this is the second argument to the 'array' method
\, after the name of the array.;
#X obj 40 191 tgl 15 0 empty empty empty 17 7 0 10 -262144 -1 -1 0
1;
#X msg 40 208 verbose \$1;
#X text 109 209 <-- with this turned on \, you will see alot of information
about what is happening and what settings you are using.;
#X text 157 257 <-- and the many \, many analysis parameters are in
here.;
#X obj 341 399 sms;
#X text 471 404 RTE - Oct 2008;
#X text 179 273 These are the exact same parameters that are handled
by the command line analysis tool \, smsAnal. With [sms] \, you should
also have this tool \, along with it's manpage installed. You can find
more documentation on the parameters there.;
#X text 227 360 [smsanal] is part of a library for using Spectral Model
Synthesis techniques in pd. For more information and how the analysis/synthesis
externals work together \, see the main help file -->;
#X obj 522 10 cnv 15 60 30 empty empty SMS 10 16 1 20 -225295 -262130
0;
#X text 117 47 [smsanal] will perform SMS analysis in a seperate thread
\, afterwards storing the DATA in an [smsbuf]. [smsanal] requires the
name of the buffer as its first argument.;
#X connect 1 0 4 0;
#X connect 2 0 1 0;
#X connect 3 0 2 0;
#X connect 4 0 8 0;
#X connect 6 0 4 0;
#X connect 7 0 4 0;
#X connect 10 0 4 0;
#X connect 13 0 14 0;
#X connect 14 0 4 0;
