#N canvas 872 244 537 600 10;
#X obj 28 76 bng 15 250 50 0 empty empty empty 17 7 0 10 -262144 -1
-1;
#X obj 28 96 openpanel;
#X msg 28 119 open \$1;
#X msg 67 212 info;
#X msg 98 337 backup;
#X floatatom 80 238 5 0 0 0 - - -;
#X msg 79 259 printframe \$1;
#X msg 91 418 switch;
#X msg 96 302 verbose \$1;
#X obj 96 282 tgl 15 0 empty empty empty 17 7 0 10 -262144 -1 -1 0
1;
#X obj 29 453 smsbuf \$0-blarg;
#X msg 52 186 save /tmp/savedfile.sms;
#X obj 452 10 cnv 15 60 30 empty empty SMS 10 16 1 20 -225295 -262130
0;
#X obj 301 569 sms;
#X text 431 574 RTE - Oct 2008;
#X text 187 530 [smsanal] is part of a library for using Spectral Model
Synthesis techniques in pd. For more information and how the analysis/synthesis
externals work together \, see the main help file -->;
#X text 205 186 <-- save the analysis buffer to file;
#X text 81 118 <-- open an SMS file that has been stored with libsms.
It loads the file into a buffer than can be accessed by other [sms]
externals that have access to the buffer \, using the same name argument.
;
#X text 103 210 <-- print header information of a loaded buffer;
#X text 173 258 <-- print the data of a frame in the buffer;
#X text 167 302 <-- more information printed;
#X text 148 336 <-- make a copy of the data buffer. This is nice if
you are planning to edit some of the data but want to quickly recall
the original. Because the data is known to be exactly the same \, the
synthesis parameters to do need to be re-initialized by using this
\, whereas it would have to be if you reloaded the data from file.
;
#X text 147 417 <-- switch to the backup buffer;
#X text 18 5 [smsbuf] is a storage external for externals that will
perform SMS analysis/synthesis or manipulations. It allows multiple
externals to work on the same data in memory by using a symbol-name
as its first argument. Other [sms] externals can find the buffer with
this symbol.;
#X connect 0 0 1 0;
#X connect 1 0 2 0;
#X connect 2 0 10 0;
#X connect 3 0 10 0;
#X connect 4 0 10 0;
#X connect 5 0 6 0;
#X connect 6 0 10 0;
#X connect 7 0 10 0;
#X connect 8 0 10 0;
#X connect 9 0 8 0;
#X connect 11 0 10 0;
